<svg viewBox="0 0 250 135" fill="none" xmlns="http://www.w3.org/2000/svg">
<mask id="path-1-inside-1_265_119" fill="white">
<path fill-rule="evenodd" clip-rule="evenodd" d="M250 66.7142C250 94.4822 217.258 118.229 170.968 127.86V75.175V67.1104C170.968 67.1029 170.968 67.0954 170.968 67.0878C170.968 56.4109 150.387 47.7556 125 47.7556C99.6128 47.7556 79.0323 56.4109 79.0323 67.0878C79.0323 67.1003 79.0323 67.1127 79.0324 67.1252V76.7879V127.86C32.7425 118.229 0 94.4822 0 66.7142C0 30.411 55.9644 0.981445 125 0.981445C194.036 0.981445 250 30.411 250 66.7142Z"/>
</mask>
<path fill-rule="evenodd" clip-rule="evenodd" d="M250 66.7142C250 94.4822 217.258 118.229 170.968 127.86V75.175V67.1104C170.968 67.1029 170.968 67.0954 170.968 67.0878C170.968 56.4109 150.387 47.7556 125 47.7556C99.6128 47.7556 79.0323 56.4109 79.0323 67.0878C79.0323 67.1003 79.0323 67.1127 79.0324 67.1252V76.7879V127.86C32.7425 118.229 0 94.4822 0 66.7142C0 30.411 55.9644 0.981445 125 0.981445C194.036 0.981445 250 30.411 250 66.7142Z" fill="#626262"/>
<path d="M170.968 127.86H158.944V142.643L173.417 139.632L170.968 127.86ZM79.0324 67.1252H91.0565V67.0994L91.0564 67.0736L79.0324 67.1252ZM79.0324 127.86L76.5831 139.632L91.0565 142.643V127.86H79.0324ZM173.417 139.632C197.79 134.561 219.347 125.64 235.115 113.664C250.807 101.746 262.024 85.7108 262.024 66.7142H237.976C237.976 75.4855 232.822 85.2075 220.57 94.5128C208.395 103.76 190.436 111.528 168.519 116.088L173.417 139.632ZM158.944 75.175V127.86H182.992V75.175H158.944ZM158.944 67.1104V75.175H182.992V67.1104H158.944ZM158.944 67.0878C158.944 67.1096 158.944 67.1275 158.944 67.1391C158.944 67.145 158.944 67.15 158.944 67.1534C158.944 67.1565 158.944 67.1594 158.944 67.16C158.944 67.1612 158.944 67.1603 158.944 67.159C158.944 67.1575 158.944 67.1545 158.944 67.1504C158.944 67.1426 158.944 67.1284 158.944 67.1104H182.992C182.992 67.0887 182.992 67.0707 182.992 67.0591C182.992 67.0532 182.992 67.0483 182.992 67.0449C182.992 67.0418 182.992 67.0389 182.992 67.0383C182.992 67.037 182.992 67.038 182.992 67.0393C182.992 67.0407 182.992 67.0438 182.992 67.0478C182.992 67.0557 182.992 67.0698 182.992 67.0878H158.944ZM125 59.7797C136.491 59.7797 146.327 61.7614 152.843 64.5017C156.125 65.8822 158.002 67.219 158.877 68.0894C159.707 68.9146 158.944 68.5665 158.944 67.0878H182.992C182.992 60.2708 179.656 54.8369 175.834 51.0363C172.057 47.2809 167.202 44.452 162.166 42.3341C152.044 38.0774 138.897 35.7315 125 35.7315V59.7797ZM91.0564 67.0878C91.0564 68.5665 90.2929 68.9146 91.1228 68.0894C91.9981 67.219 93.8749 65.8822 97.1574 64.5017C103.673 61.7614 113.51 59.7797 125 59.7797V35.7315C111.103 35.7315 97.9559 38.0774 87.8345 42.3341C82.7985 44.452 77.9434 47.2809 74.1666 51.0363C70.3443 54.8369 67.0082 60.2708 67.0082 67.0878H91.0564ZM91.0564 67.0736C91.0564 67.0758 91.0564 67.0807 91.0564 67.0878H67.0082C67.0082 67.1199 67.0083 67.1497 67.0084 67.1768L91.0564 67.0736ZM91.0565 76.7879V67.1252H67.0083V76.7879H91.0565ZM91.0565 127.86V76.7879H67.0083V127.86H91.0565ZM-12.0241 66.7142C-12.0241 85.7109 -0.806754 101.746 14.885 113.664C30.6533 125.64 52.2107 134.561 76.5831 139.632L81.4817 116.088C59.5642 111.528 41.6054 103.76 29.43 94.5129C17.178 85.2076 12.0241 75.4855 12.0241 66.7142H-12.0241ZM125 -11.0427C88.9334 -11.0427 55.6848 -3.38102 31.0152 9.59177C6.90351 22.2712 -12.0241 41.872 -12.0241 66.7142H12.0241C12.0241 55.2532 21.0787 41.9876 42.2081 30.8765C62.7796 20.0587 92.031 13.0056 125 13.0056V-11.0427ZM262.024 66.7142C262.024 41.872 243.096 22.2712 218.985 9.59177C194.315 -3.38102 161.067 -11.0427 125 -11.0427V13.0056C157.969 13.0056 187.22 20.0587 207.792 30.8765C228.921 41.9876 237.976 55.2532 237.976 66.7142H262.024Z" fill="#626262" mask="url(#path-1-inside-1_265_119)"/>
<path d="M162.187 71.6467C162.187 73.195 161.268 74.7376 159.449 76.2032C157.635 77.6656 154.982 79.0024 151.664 80.1334C145.033 82.394 135.844 83.8002 125.672 83.8002C115.501 83.8002 106.311 82.394 99.6803 80.1334C96.3626 79.0024 93.7097 77.6656 91.8954 76.2032C90.077 74.7376 89.1573 73.195 89.1573 71.6467C89.1573 70.0984 90.077 68.5558 91.8954 67.0902C93.7097 65.6278 96.3626 64.291 99.6803 63.16C106.311 60.8994 115.501 59.4932 125.672 59.4932C135.844 59.4932 145.033 60.8994 151.664 63.16C154.982 64.291 157.635 65.6278 159.449 67.0902C161.268 68.5558 162.187 70.0984 162.187 71.6467Z" fill="#626262" stroke="#626262" stroke-width="0.894652"/>
<path d="M125.672 90.1278C106.771 90.1278 97.1105 86.7676 88.71 80.8872V93.488C97.1105 99.3684 106.771 102.729 125.672 102.729C144.574 102.729 154.234 99.3684 162.635 93.488V80.8872C154.234 86.7676 144.574 90.1278 125.672 90.1278Z" fill="#626262" stroke="#626262" stroke-width="1.7893"/>
<path d="M125.672 108.609C106.771 108.609 97.1105 105.249 88.71 99.3684V111.969C97.1105 117.85 106.771 121.21 125.672 121.21C144.574 121.21 154.234 117.85 162.635 111.969V99.3684C154.234 105.249 144.574 108.609 125.672 108.609Z" fill="#626262" stroke="#626262" stroke-width="1.7893"/>
<path d="M125.672 127.09C106.771 127.09 97.1105 123.73 88.71 117.85V130.014C111.291 134.852 139.516 134.852 162.635 129.653V117.85C154.234 123.73 144.574 127.09 125.672 127.09Z" fill="#626262" stroke="#626262" stroke-width="1.7893"/>
</svg>
