<svg viewBox="0 0 250 133" fill="none" xmlns="http://www.w3.org/2000/svg">
<path fill-rule="evenodd" clip-rule="evenodd" d="M87.8932 3.89855C81.267 4.98026 74.8769 6.34404 68.7736 7.9632C47.6226 24.2467 36.5482 43.9636 36.1505 64.4416C35.7793 83.5513 44.6875 104.258 65.1741 124.416C69.3159 125.605 73.5998 126.675 78.009 127.617C57.1794 98.5495 52.3721 73.1405 58.9711 49.896C63.7191 33.1716 74.2557 18.0725 87.8932 3.89855ZM91.4081 130.019C98.0185 130.986 104.85 131.675 111.853 132.06C91.0544 106.586 83.2797 80.1664 87.9088 55.7403C91.8954 34.7047 104.942 15.8914 125.415 0.954211C125.276 0.953975 125.138 0.953857 125 0.953857C117.5 0.953857 110.154 1.30121 103.018 1.967C85.731 18.1097 72.9271 34.5083 67.8435 52.4149C61.7017 74.049 66.5661 99.0087 91.4081 130.019ZM141.365 1.51214C116.045 16.4264 101.023 36.076 96.9706 57.4577C92.63 80.3611 100.655 106.431 124.344 132.419C124.563 132.419 124.781 132.419 125 132.419C131.523 132.419 137.929 132.157 144.182 131.65C122.046 107.683 113.327 84.9998 114.572 65.56C115.871 45.2812 127.953 29.5544 144.718 20.6084C161.62 11.5894 183.371 9.34735 204.404 15.9175C186.784 8.28808 165.124 3.14586 141.365 1.51214ZM249.978 65.4333C223.91 20.0732 177.644 13.4929 149.06 28.7454C134.66 36.4294 124.84 49.5403 123.776 66.1495C122.706 82.8608 130.442 104.129 153.402 127.986L155.742 130.417C160.099 129.837 164.364 129.138 168.525 128.325C149.205 110.233 139.965 92.0956 138.642 76.2242C137.3 60.1243 144.186 46.7478 156.097 39.2639C179.355 24.65 218.049 33.7606 247.982 78.514C249.308 74.6773 250 70.7245 250 66.6866C250 66.2679 249.993 65.8502 249.978 65.4333ZM243.204 88.1204L242.709 87.3323C213.686 41.1632 178.584 36.0271 161.004 47.0733C152.164 52.6274 146.762 62.6083 147.833 75.4578C148.915 88.4361 156.683 104.712 175.173 121.914L178.549 125.055L177.289 126.409C184.456 124.671 191.256 122.587 197.613 120.198C181.031 108.231 172.091 96.2445 169.138 85.7303C166.097 74.8992 169.506 65.3552 177.705 60.8426C185.603 56.4957 196.331 57.7379 206.331 64.5112C215.895 70.9899 225.179 82.681 232.088 100.611C236.583 96.6953 240.324 92.5133 243.204 88.1204ZM224.446 106.518C217.907 88.2932 209.167 77.5718 201.158 72.1473C193.058 66.6602 186.109 66.7448 182.152 68.9227C178.496 70.935 175.873 75.5983 178.018 83.2367C180.217 91.067 187.504 101.652 203.566 113.118L207.319 115.797L206.94 116.328C213.389 113.382 219.258 110.094 224.446 106.518ZM24.8829 27.3227C31.3917 22.7523 39.0057 18.6423 47.5165 15.1023C34.5147 29.7224 27.2745 46.4829 26.9292 64.2625C26.5816 82.1608 33.2327 100.492 47.1072 118.1C38.7844 114.608 31.3282 110.57 24.9357 106.088C14.5767 86.2799 12.9079 70.4304 14.6507 57.5183C16.2675 45.5391 20.7577 35.9636 24.8829 27.3227ZM8.58303 90.6723C4.6695 77.7917 4.14328 66.4145 5.5105 56.2846C6.1608 51.4665 7.24814 46.9436 8.5687 42.7202C3.03698 50.1459 0 58.2297 0 66.6866C0 75.1508 3.04222 83.2413 8.58303 90.6723Z" fill="#626262"/>
</svg>
