<svg viewBox="0 0 250 132" fill="none" xmlns="http://www.w3.org/2000/svg">
<path d="M198.22 65.8939C198.22 99.1612 166.356 127.261 125.539 127.261C84.7217 127.261 52.8571 99.1612 52.8571 65.8939C52.8571 32.6265 84.7217 4.52707 125.539 4.52707C166.356 4.52707 198.22 32.6265 198.22 65.8939Z" stroke="#626262" stroke-width="8.73187"/>
<path d="M245.634 65.8939C245.634 81.6161 233.435 96.8992 211.356 108.51C189.48 120.014 158.955 127.261 125 127.261C91.0446 127.261 60.5203 120.014 38.6437 108.51C16.5646 96.8992 4.36593 81.6161 4.36593 65.8939C4.36593 50.1716 16.5646 34.8886 38.6437 23.278C60.5203 11.774 91.0446 4.52707 125 4.52707C158.955 4.52707 189.48 11.774 211.356 23.278C233.435 34.8886 245.634 50.1716 245.634 65.8939Z" stroke="#626262" stroke-width="8.73187"/>
<path d="M123.384 5.01025V127.316" stroke="#626262" stroke-width="8.73187"/>
<path d="M44.7197 22.7905C44.7197 22.7905 62.4999 44.3423 123.384 44.3423C184.267 44.3423 205.819 22.7905 205.819 22.7905" stroke="#626262" stroke-width="8.73187"/>
<path d="M44.7197 113.308C44.7197 113.308 62.4999 91.7559 123.384 91.7559C184.267 91.7559 205.819 113.308 205.819 113.308" stroke="#626262" stroke-width="8.73187"/>
<path d="M7.00391 65.8938H247.844" stroke="#626262" stroke-width="8.73187"/>
</svg>
