<svg viewBox="0 0 168 67" fill="none" xmlns="http://www.w3.org/2000/svg">
<path d="M0.286133 42.5932C14.3058 13.9402 24.4115 3.97395 30.9007 14.3493C48.9274 43.1556 57.5084 22.6049 72.8157 8.66422C100.135 -16.2142 105.406 20.5084 86.3241 39.7762C92.2833 30.4189 88.9411 13.2801 80.6344 14.9257C67.2236 17.5799 69.5757 56.9522 45.6363 41.1986C34.3824 33.7983 22.3197 16.2644 0.286133 42.5978V42.5932Z" fill="#626262"/>
<path d="M167.713 10.6538C155.149 41.4265 145.573 52.9592 138.6 43.6624C119.235 17.8403 111.69 39.674 97.1267 55.9947C71.128 85.1264 64.0857 49.3799 82.1495 27.1558C76.669 37.4242 80.8386 53.9633 89.0338 51.0069C102.263 46.2283 97.9914 7.38596 122.614 19.2674C134.184 24.8455 147.06 40.3899 167.718 10.6585L167.713 10.6538Z" fill="#626262"/>
</svg>
