<svg width="32" height="32" viewBox="0 0 32 32" fill="none" xmlns="http://www.w3.org/2000/svg">
<g clip-path="url(#clip0_1019_1125)">
<g clip-path="url(#clip1_1019_1125)">
<path d="M15.9997 0.533325V31.4667" stroke="#626262" stroke-width="1.06667" stroke-miterlimit="16"/>
<path d="M0.533081 16L31.4664 16" stroke="#626262" stroke-width="1.06667" stroke-miterlimit="16"/>
<path d="M11.9969 1.06036L20.003 30.9397" stroke="#626262" stroke-width="1.06667" stroke-miterlimit="16"/>
<path d="M1.06032 20.0031L30.9396 11.9969" stroke="#626262" stroke-width="1.06667" stroke-miterlimit="16"/>
<path d="M2.60537 8.26672L29.3944 23.7334" stroke="#626262" stroke-width="1.06667" stroke-miterlimit="16"/>
<path d="M8.26656 29.3946L23.7332 2.60554" stroke="#626262" stroke-width="1.06667" stroke-miterlimit="16"/>
<path d="M2.60537 8.26672L29.3944 23.7334" stroke="#626262" stroke-width="1.06667" stroke-miterlimit="16"/>
<path d="M8.26656 29.3946L23.7332 2.60554" stroke="#626262" stroke-width="1.06667" stroke-miterlimit="16"/>
<path d="M1.06032 11.997L30.9396 20.0031" stroke="#626262" stroke-width="1.06667" stroke-miterlimit="16"/>
<path d="M11.9969 30.9398L20.003 1.06045" stroke="#626262" stroke-width="1.06667" stroke-miterlimit="16"/>
<path d="M5.06342 5.06342L26.9366 26.9366" stroke="#626262" stroke-width="1.06667" stroke-miterlimit="16"/>
<path d="M5.06342 26.9366L26.9366 5.06348" stroke="#626262" stroke-width="1.06667" stroke-miterlimit="16"/>
<path d="M8.26656 2.60547L23.7332 29.3945" stroke="#626262" stroke-width="1.06667" stroke-miterlimit="16"/>
<path d="M2.60537 23.7333L29.3944 8.26667" stroke="#626262" stroke-width="1.06667" stroke-miterlimit="16"/>
</g>
</g>
<defs>
<clipPath id="clip0_1019_1125">
<rect width="32" height="32" fill="white"/>
</clipPath>
<clipPath id="clip1_1019_1125">
<rect width="31.1467" height="31.1467" fill="white" transform="translate(0.426666 0.426697)"/>
</clipPath>
</defs>
</svg>
