<svg viewBox="0 0 250 133" fill="none" xmlns="http://www.w3.org/2000/svg">
<path d="M246 66.5389C246 82.4648 233.651 97.8442 211.527 109.479C189.588 121.016 159.003 128.272 125 128.272C90.9974 128.272 60.4123 121.016 38.4734 109.479C16.3489 97.8442 4 82.4648 4 66.5389C4 50.613 16.3489 35.2336 38.4734 23.5992C60.4123 12.0623 90.9974 4.80615 125 4.80615C159.003 4.80615 189.588 12.0623 211.527 23.5992C233.651 35.2336 246 50.613 246 66.5389Z" stroke="#626262" stroke-width="8"/>
<path d="M83.8715 124.193C-1.61254 105.645 28.2265 28.2253 120.162 24.9995C58.8713 75.806 79.9581 107.258 148.388 107.258C202.42 107.258 253.226 89.5156 242.743 54.0318" stroke="#626262" stroke-width="7"/>
<path d="M166.129 8.87069C251.113 27.2683 231.452 96.7739 133.872 86.29C199.194 43.5481 172.581 -6.45189 88.7098 8.06424" stroke="#626262" stroke-width="7"/>
</svg>
