<svg width="936" height="63" viewBox="0 0 936 63" fill="none" xmlns="http://www.w3.org/2000/svg">
<path d="M31.4085 62.91C25.2205 62.91 19.8819 62.1517 15.3925 60.635C10.9032 59.0577 7.44518 56.6613 5.01852 53.446C2.59185 50.17 1.37852 45.9537 1.37852 40.797V40.251H18.4865V42.162C18.4865 43.4967 18.7595 44.5583 19.3055 45.347C19.9122 46.075 21.1255 46.5907 22.9455 46.894C24.7655 47.1973 27.5865 47.349 31.4085 47.349C34.8665 47.349 37.4145 47.258 39.0525 47.076C40.6905 46.8333 41.7219 46.4693 42.1465 45.984C42.6319 45.438 42.8745 44.71 42.8745 43.8C42.8745 42.708 42.4499 41.889 41.6005 41.343C40.8119 40.797 39.1739 40.3723 36.6865 40.069L17.5765 37.521C13.8152 36.975 10.6605 35.974 8.11252 34.518C5.56452 33.0013 3.65352 31.0297 2.37952 28.603C1.10552 26.1763 0.468516 23.325 0.468516 20.049C0.468516 17.6223 0.984182 15.226 2.01552 12.86C3.04685 10.494 4.71518 8.37066 7.02052 6.49C9.32585 4.54867 12.3592 3.00167 16.1205 1.849C19.8818 0.696332 24.5228 0.119999 30.0435 0.119999C36.5349 0.119999 41.8735 1.03 46.0595 2.85C50.3062 4.60933 53.4609 7.15733 55.5235 10.494C57.6469 13.77 58.7085 17.683 58.7085 22.233V22.779H41.6005V21.414C41.6005 19.958 41.2669 18.8053 40.5995 17.956C39.9929 17.1067 38.7189 16.5 36.7775 16.136C34.8969 15.772 32.0455 15.59 28.2235 15.59C25.3115 15.59 23.0972 15.7417 21.5805 16.045C20.0639 16.2877 19.0022 16.682 18.3955 17.228C17.8495 17.774 17.5765 18.502 17.5765 19.412C17.5765 20.0187 17.6979 20.5647 17.9405 21.05C18.2439 21.4747 18.6989 21.8083 19.3055 22.051C19.9729 22.2937 20.8525 22.506 21.9445 22.688L41.0545 25.509C46.0292 26.237 49.8815 27.511 52.6115 29.331C55.3415 31.0903 57.2525 33.1833 58.3445 35.61C59.4365 38.0367 59.9825 40.5543 59.9825 43.163C59.9825 46.621 59.0119 49.8667 57.0705 52.9C55.1899 55.8727 52.1565 58.2993 47.9705 60.18C43.7845 62 38.2639 62.91 31.4085 62.91ZM81.1485 62H64.0405V1.03H81.1485V62ZM118.186 62H68.6815V46.621H118.186V62ZM116.821 38.977H68.6815V23.689H116.821V38.977ZM118.186 16.409H68.6815V1.03H118.186V16.409ZM140.156 62H123.048V1.03H158.629C164.029 1.03 168.548 1.758 172.188 3.214C175.828 4.67 178.558 6.79333 180.378 9.584C182.259 12.314 183.199 15.681 183.199 19.685C183.199 22.9003 182.623 25.691 181.47 28.057C180.378 30.3623 178.619 32.243 176.192 33.699C173.766 35.0943 170.611 36.0347 166.728 36.52V37.43C169.883 38.2187 172.128 39.4017 173.462 40.979C174.858 42.4957 176.132 44.4067 177.284 46.712L184.837 62H165.09L157.81 47.076C157.082 45.5593 156.324 44.3763 155.535 43.527C154.747 42.6777 153.715 42.1013 152.441 41.798C151.167 41.434 149.408 41.252 147.163 41.252H140.156V62ZM140.156 16.409V28.512H158.447C160.935 28.512 162.694 28.148 163.725 27.42C164.757 26.692 165.272 25.0237 165.272 22.415C165.272 19.9883 164.757 18.3807 163.725 17.592C162.694 16.8033 160.935 16.409 158.447 16.409H140.156ZM232.975 62H208.405L183.926 1.03H204.583L220.326 44.71H221.509L236.888 1.03H257.454L232.975 62ZM276.39 62H259.282V1.03H276.39V62ZM314.614 62.91C307.577 62.91 301.54 61.636 296.505 59.088C291.47 56.4793 287.617 52.8393 284.948 48.168C282.279 43.436 280.944 37.885 280.944 31.515C280.944 25.145 282.279 19.6243 284.948 14.953C287.617 10.221 291.47 6.581 296.505 4.033C301.54 1.42433 307.577 0.119999 314.614 0.119999C321.469 0.119999 327.324 1.15133 332.177 3.214C337.091 5.27666 340.852 8.24933 343.461 12.132C346.07 16.0147 347.374 20.686 347.374 26.146V27.693H328.264V26.146C328.264 22.688 327.293 20.231 325.352 18.775C323.411 17.2583 319.922 16.5 314.887 16.5C310.762 16.5 307.546 16.9247 305.241 17.774C302.996 18.5627 301.419 20.049 300.509 22.233C299.599 24.3563 299.144 27.4503 299.144 31.515C299.144 35.519 299.599 38.613 300.509 40.797C301.419 42.981 302.996 44.4977 305.241 45.347C307.546 46.1357 310.762 46.53 314.887 46.53C319.922 46.53 323.411 45.802 325.352 44.346C327.293 42.8293 328.264 40.342 328.264 36.884V35.337H347.374V36.884C347.374 42.2833 346.07 46.9547 343.461 50.898C340.852 54.7807 337.091 57.7533 332.177 59.816C327.324 61.8787 321.469 62.91 314.614 62.91ZM368.989 62H351.881V1.03H368.989V62ZM406.026 62H356.522V46.621H406.026V62ZM404.661 38.977H356.522V23.689H404.661V38.977ZM406.026 16.409H356.522V1.03H406.026V16.409ZM440.464 62.91C434.276 62.91 428.938 62.1517 424.448 60.635C419.959 59.0577 416.501 56.6613 414.074 53.446C411.648 50.17 410.434 45.9537 410.434 40.797V40.251H427.542V42.162C427.542 43.4967 427.815 44.5583 428.361 45.347C428.968 46.075 430.181 46.5907 432.001 46.894C433.821 47.1973 436.642 47.349 440.464 47.349C443.922 47.349 446.47 47.258 448.108 47.076C449.746 46.8333 450.778 46.4693 451.202 45.984C451.688 45.438 451.93 44.71 451.93 43.8C451.93 42.708 451.506 41.889 450.656 41.343C449.868 40.797 448.23 40.3723 445.742 40.069L426.632 37.521C422.871 36.975 419.716 35.974 417.168 34.518C414.62 33.0013 412.709 31.0297 411.435 28.603C410.161 26.1763 409.524 23.325 409.524 20.049C409.524 17.6223 410.04 15.226 411.071 12.86C412.103 10.494 413.771 8.37066 416.076 6.49C418.382 4.54867 421.415 3.00167 425.176 1.849C428.938 0.696332 433.579 0.119999 439.099 0.119999C445.591 0.119999 450.929 1.03 455.115 2.85C459.362 4.60933 462.517 7.15733 464.579 10.494C466.703 13.77 467.764 17.683 467.764 22.233V22.779H450.656V21.414C450.656 19.958 450.323 18.8053 449.655 17.956C449.049 17.1067 447.775 16.5 445.833 16.136C443.953 15.772 441.101 15.59 437.279 15.59C434.367 15.59 432.153 15.7417 430.636 16.045C429.12 16.2877 428.058 16.682 427.451 17.228C426.905 17.774 426.632 18.502 426.632 19.412C426.632 20.0187 426.754 20.5647 426.996 21.05C427.3 21.4747 427.755 21.8083 428.361 22.051C429.029 22.2937 429.908 22.506 431 22.688L450.11 25.509C455.085 26.237 458.937 27.511 461.667 29.331C464.397 31.0903 466.308 33.1833 467.4 35.61C468.492 38.0367 469.038 40.5543 469.038 43.163C469.038 46.621 468.068 49.8667 466.126 52.9C464.246 55.8727 461.212 58.2993 457.026 60.18C452.84 62 447.32 62.91 440.464 62.91ZM502.912 62H485.804V1.03H502.912V62ZM554.845 46.621H526.817V31.242H552.934C555.968 31.242 558.121 30.787 559.395 29.877C560.73 28.967 561.397 26.9347 561.397 23.78C561.397 20.686 560.73 18.684 559.395 17.774C558.121 16.864 555.968 16.409 552.934 16.409H526.817V1.03H554.845C559.699 1.03 563.885 1.94 567.403 3.76C570.922 5.51933 573.622 8.09767 575.502 11.495C577.444 14.8317 578.414 18.9267 578.414 23.78C578.414 28.5727 577.444 32.698 575.502 36.156C573.622 39.5533 570.922 42.162 567.403 43.982C563.885 45.7413 559.699 46.621 554.845 46.621ZM538.192 62H521.084V1.03H538.192V62ZM599.155 62H582.047V1.03H617.628C623.028 1.03 627.547 1.758 631.187 3.214C634.827 4.67 637.557 6.79333 639.377 9.584C641.258 12.314 642.198 15.681 642.198 19.685C642.198 22.9003 641.622 25.691 640.469 28.057C639.377 30.3623 637.618 32.243 635.191 33.699C632.765 35.0943 629.61 36.0347 625.727 36.52V37.43C628.882 38.2187 631.127 39.4017 632.461 40.979C633.857 42.4957 635.131 44.4067 636.283 46.712L643.836 62H624.089L616.809 47.076C616.081 45.5593 615.323 44.3763 614.534 43.527C613.746 42.6777 612.714 42.1013 611.44 41.798C610.166 41.434 608.407 41.252 606.162 41.252H599.155V62ZM599.155 16.409V28.512H617.446C619.934 28.512 621.693 28.148 622.724 27.42C623.756 26.692 624.271 25.0237 624.271 22.415C624.271 19.9883 623.756 18.3807 622.724 17.592C621.693 16.8033 619.934 16.409 617.446 16.409H599.155ZM679.416 62.91C672.379 62.91 666.312 61.636 661.216 59.088C656.181 56.4793 652.328 52.8393 649.659 48.168C646.99 43.436 645.655 37.885 645.655 31.515C645.655 25.145 646.99 19.6243 649.659 14.953C652.328 10.221 656.181 6.581 661.216 4.033C666.312 1.42433 672.379 0.119999 679.416 0.119999C686.696 0.119999 692.854 1.42433 697.889 4.033C702.985 6.581 706.868 10.221 709.537 14.953C712.206 19.6243 713.541 25.145 713.541 31.515C713.541 37.885 712.206 43.436 709.537 48.168C706.868 52.8393 702.985 56.4793 697.889 59.088C692.854 61.636 686.696 62.91 679.416 62.91ZM679.416 46.53C683.541 46.53 686.757 46.1357 689.062 45.347C691.367 44.4977 692.975 42.981 693.885 40.797C694.856 38.613 695.341 35.519 695.341 31.515C695.341 27.4503 694.856 24.3563 693.885 22.233C692.975 20.049 691.367 18.5627 689.062 17.774C686.757 16.9247 683.541 16.5 679.416 16.5C675.291 16.5 672.106 16.9247 669.861 17.774C667.616 18.5627 666.039 20.049 665.129 22.233C664.28 24.3563 663.855 27.4503 663.855 31.515C663.855 35.519 664.28 38.613 665.129 40.797C666.039 42.981 667.616 44.4977 669.861 45.347C672.106 46.1357 675.291 46.53 679.416 46.53ZM763.512 62H738.942L714.463 1.03H735.12L750.863 44.71H752.046L767.425 1.03H787.991L763.512 62ZM806.927 62H789.819V1.03H806.927V62ZM844.241 62H817.669V46.621H844.241C847.881 46.621 850.763 46.3177 852.886 45.711C855.009 45.1043 856.526 43.7393 857.436 41.616C858.346 39.432 858.801 36.065 858.801 31.515C858.801 26.9043 858.346 23.5373 857.436 21.414C856.526 19.2907 855.009 17.9257 852.886 17.319C850.763 16.7123 847.881 16.409 844.241 16.409H817.669V1.03H844.241C850.975 1.03 856.799 2.24333 861.713 4.67C866.627 7.036 870.419 10.494 873.088 15.044C875.757 19.594 877.092 25.0843 877.092 31.515C877.092 37.9457 875.757 43.436 873.088 47.986C870.419 52.536 866.627 56.0243 861.713 58.451C856.799 60.817 850.975 62 844.241 62ZM830.5 62H813.392V1.03H830.5V62ZM898.727 62H881.619V1.03H898.727V62ZM935.764 62H886.26V46.621H935.764V62ZM934.399 38.977H886.26V23.689H934.399V38.977ZM935.764 16.409H886.26V1.03H935.764V16.409Z" fill="#EEEEEE"/>
</svg>
