<svg width="768" height="96" viewBox="0 0 768 96" fill="none" xmlns="http://www.w3.org/2000/svg">
<path d="M-12.9494 24.7945H20.5548V51.1585H-12.9494V24.7945ZM9.84443 2.00062H19.319V17.9289H10.6683C9.02056 17.9289 7.78475 18.2493 6.96087 18.8901C6.22854 19.5308 5.86237 20.8582 5.86237 22.8721V27.9527H-12.9494V23.0094C-12.9494 15.9607 -10.9813 10.6971 -7.045 7.2185C-3.01717 3.73991 2.61264 2.00062 9.84443 2.00062ZM27.4204 24.7945H60.9247V51.1585H27.4204V24.7945ZM50.2143 2.00062H59.6889V17.9289H51.0382C49.3904 17.9289 48.1546 18.2493 47.3307 18.8901C46.5984 19.5308 46.2322 20.8582 46.2322 22.8721V27.9527H27.4204V23.0094C27.4204 15.9607 29.3886 10.6971 33.3249 7.2185C37.3527 3.73991 42.9825 2.00062 50.2143 2.00062ZM94.931 94H69.1162V2.00062H94.931V94ZM148.071 94H76.2565V70.7942H148.071V94ZM180.751 94H154.937V2.00062H180.751V94ZM236.637 94H161.939V70.7942H236.637V94ZM234.578 59.2599H161.939V36.1914H234.578V59.2599ZM236.637 25.2064H161.939V2.00062H236.637V25.2064ZM300.273 94H274.458V2.00062H300.273V94ZM332.679 25.2064H241.915V2.00062H332.679V25.2064ZM372.418 28.3646H338.914V2.00062H372.418V28.3646ZM349.624 51.1585H340.15V35.2302H348.8C350.448 35.2302 351.638 34.9098 352.37 34.2691C353.194 33.6283 353.606 32.3009 353.606 30.287V25.2064H372.418V30.1497C372.418 37.1984 370.404 42.462 366.376 45.9406C362.44 49.4192 356.856 51.1585 349.624 51.1585ZM425.244 95.3731C415.906 95.3731 407.851 94.2289 401.077 91.9403C394.303 89.5602 389.085 85.9443 385.423 81.0926C381.761 76.1494 379.931 69.7872 379.931 62.0062V61.1823H405.745V64.0659C405.745 66.0798 406.157 67.6818 406.981 68.8718C407.897 69.9703 409.727 70.7484 412.474 71.2061C415.22 71.6638 419.477 71.8927 425.244 71.8927C430.462 71.8927 434.306 71.7554 436.778 71.4807C439.25 71.1146 440.806 70.5653 441.447 69.833C442.179 69.0091 442.545 67.9106 442.545 66.5375C442.545 64.8897 441.904 63.6539 440.623 62.8301C439.433 62.0062 436.961 61.3654 433.208 60.9077L404.372 57.0629C398.697 56.2391 393.936 54.7286 390.092 52.5316C386.247 50.2431 383.363 47.268 381.441 43.6063C379.519 39.9446 378.557 35.6422 378.557 30.6989C378.557 27.0373 379.336 23.4214 380.892 19.8512C382.448 16.2811 384.965 13.0772 388.444 10.2394C391.923 7.31004 396.5 4.97573 402.175 3.23644C407.851 1.49714 414.854 0.627499 423.184 0.627499C432.979 0.627499 441.035 2.00062 447.351 4.74687C453.759 7.40158 458.519 11.2463 461.632 16.2811C464.836 21.2244 466.437 27.1288 466.437 33.9944V34.8183H440.623V32.7586C440.623 30.5616 440.119 28.8223 439.112 27.5407C438.197 26.2592 436.275 25.3437 433.345 24.7945C430.507 24.2452 426.205 23.9706 420.438 23.9706C416.044 23.9706 412.703 24.1995 410.414 24.6572C408.125 25.0234 406.523 25.6184 405.608 26.4422C404.784 27.2661 404.372 28.3646 404.372 29.7377C404.372 30.6532 404.555 31.477 404.921 32.2094C405.379 32.8502 406.066 33.3536 406.981 33.7198C407.988 34.086 409.315 34.4064 410.963 34.681L439.799 38.9377C447.305 40.0362 453.118 41.9586 457.238 44.7048C461.357 47.3595 464.24 50.5177 465.888 54.1794C467.536 57.841 468.36 61.64 468.36 65.5763C468.36 70.7942 466.895 75.6917 463.966 80.2687C461.128 84.7543 456.551 88.416 450.235 91.2537C443.918 94 435.588 95.3731 425.244 95.3731ZM538.148 95.3731C528.536 95.3731 520.297 93.4507 513.432 89.606C506.566 85.6697 501.302 80.1772 497.641 73.1285C494.07 65.9882 492.285 57.6122 492.285 48.0003C492.285 38.3884 494.391 30.0581 498.602 23.0094C502.813 15.8692 508.9 10.3767 516.864 6.53193C524.828 2.59564 534.395 0.627499 545.563 0.627499C555.998 0.627499 564.924 2.09217 572.339 5.0215C579.754 7.95083 585.429 12.1617 589.365 17.6542C593.302 23.0552 595.27 29.5547 595.27 37.1526V38.1138H566.434V37.1526C566.434 32.8502 564.878 29.8293 561.766 28.09C558.653 26.2592 553.023 25.3438 544.876 25.3438C538.285 25.3438 533.159 25.9845 529.497 27.2661C525.927 28.4562 523.41 30.6989 521.945 33.9944C520.48 37.1984 519.748 41.867 519.748 48.0003C519.748 54.0421 520.434 58.7107 521.808 62.0062C523.181 65.3017 525.561 67.5902 528.948 68.8718C532.426 70.0619 537.278 70.6569 543.503 70.6569C550.918 70.6569 556.502 70.428 560.255 69.9703C564.008 69.4211 566.48 68.3226 567.67 66.6748C568.952 64.9355 569.592 62.2808 569.592 58.7107V53.6301L595.407 53.0809V55.0032L573.025 74.3643H570.004C569.18 77.9344 567.624 81.3215 565.336 84.5254C563.139 87.7294 559.843 90.3383 555.449 92.3522C551.147 94.3662 545.38 95.3731 538.148 95.3731ZM595.407 94H571.377V67.7733L569.592 64.8897V44.9794H595.407V94ZM595.407 62.6927H541.031V43.7436H595.407V62.6927ZM652.649 95.3731C642.03 95.3731 632.876 93.4507 625.187 89.606C617.589 85.6697 611.776 80.1772 607.748 73.1285C603.72 65.9882 601.706 57.6122 601.706 48.0003C601.706 38.3884 603.72 30.0581 607.748 23.0094C611.776 15.8692 617.589 10.3767 625.187 6.53193C632.876 2.59564 642.03 0.627499 652.649 0.627499C663.634 0.627499 672.926 2.59564 680.524 6.53193C688.213 10.3767 694.072 15.8692 698.1 23.0094C702.128 30.0581 704.141 38.3884 704.141 48.0003C704.141 57.6122 702.128 65.9882 698.1 73.1285C694.072 80.1772 688.213 85.6697 680.524 89.606C672.926 93.4507 663.634 95.3731 652.649 95.3731ZM652.649 70.6569C658.874 70.6569 663.726 70.0619 667.204 68.8718C670.683 67.5902 673.109 65.3017 674.482 62.0062C675.947 58.7107 676.679 54.0421 676.679 48.0003C676.679 41.867 675.947 37.1984 674.482 33.9944C673.109 30.6989 670.683 28.4562 667.204 27.2661C663.726 25.9845 658.874 25.3438 652.649 25.3438C646.424 25.3438 641.619 25.9845 638.231 27.2661C634.844 28.4562 632.464 30.6989 631.091 33.9944C629.81 37.1984 629.169 41.867 629.169 48.0003C629.169 54.0421 629.81 58.7107 631.091 62.0062C632.464 65.3017 634.844 67.5902 638.231 68.8718C641.619 70.0619 646.424 70.6569 652.649 70.6569ZM784.9 28.3646H751.395V2.00062H784.9V28.3646ZM762.106 51.1585H752.631V35.2302H761.282C762.93 35.2302 764.12 34.9098 764.852 34.2691C765.676 33.6283 766.088 32.3009 766.088 30.287V25.2064H784.9V30.1497C784.9 37.1984 782.886 42.462 778.858 45.9406C774.921 49.4192 769.337 51.1585 762.106 51.1585ZM744.53 28.3646H711.025V2.00062H744.53V28.3646ZM721.736 51.1585H712.261V35.2302H720.912C722.56 35.2302 723.75 34.9098 724.482 34.2691C725.306 33.6283 725.718 32.3009 725.718 30.287V25.2064H744.53V30.1497C744.53 37.1984 742.516 42.462 738.488 45.9406C734.552 49.4192 728.968 51.1585 721.736 51.1585Z" fill="white"/>
</svg>
